<svg class="icon" viewBox="0 0 1024 1024" xmlns="http://www.w3.org/2000/svg" width="130" height="130"><defs><style/></defs><path d="M971.728 218.161a73.816 73.816 0 0 0-58.828-63.84 1391.815 1391.815 0 0 1-188.76-42.817A714.63 714.63 0 0 1 555.33 14.31a77.96 77.96 0 0 0-90.033 0 444.124 444.124 0 0 1-170.345 96.478 638.46 638.46 0 0 1-183.645 44.709 68.19 68.19 0 0 0-57.805 63.892s-2.046 160.318-2.046 301.454c0 255.517 306.416 502.748 459.88 502.748S924.154 849.205 965.59 524.68a2929.012 2929.012 0 0 0 3.07-305.956zM804.452 415.567L484.736 712.622a43.993 43.993 0 0 1-53.201 5.115l-8.696-7.008-176.484-180.78a42.97 42.97 0 0 1 2.558-61.386 44.71 44.71 0 0 1 62.408 2.507l145.28 150.138 288.512-268.306a44.095 44.095 0 0 1 61.897 2.558 42.612 42.612 0 0 1-2.558 61.386"/></svg>