<?xml version="1.0" standalone="no"?><!DOCTYPE svg PUBLIC "-//W3C//DTD SVG 1.1//EN" "http://www.w3.org/Graphics/SVG/1.1/DTD/svg11.dtd"><svg t="1619520017393" class="icon" viewBox="0 0 1024 1024" version="1.1" xmlns="http://www.w3.org/2000/svg" p-id="3811" xmlns:xlink="http://www.w3.org/1999/xlink" width="130" height="130"><defs><style type="text/css"></style></defs><path d="M971.727719 218.161179a73.816125 73.816125 0 0 0-58.82782-63.840973 1391.81506 1391.81506 0 0 1-188.760569-42.816422 714.630123 714.630123 0 0 1-168.810265-97.193789 77.95965 77.95965 0 0 0-90.032142 0 444.124462 444.124462 0 0 1-170.344904 96.477624 638.460885 638.460885 0 0 1-183.645107 44.709143A68.189116 68.189116 0 0 0 53.502185 219.38889S51.456 379.707487 51.456 520.8431c0 255.517356 306.416209 502.747663 459.880086 502.747663s412.817831-174.38612 454.253078-498.911066a2929.011567 2929.011567 0 0 0 3.069277-305.955817z m-167.275627 197.405701l-319.716411 297.054912a43.992978 43.992978 0 0 1-53.200811 5.115463l-8.696286-7.008184-176.48346-180.780447a42.969886 42.969886 0 0 1 2.557732-61.385551 44.709143 44.709143 0 0 1 62.408643 2.506576l145.279138 150.138827 288.512089-268.306012a44.095287 44.095287 0 0 1 61.897098 2.557731 42.611803 42.611803 0 0 1-2.557732 61.385551" p-id="3812"></path></svg>