<?xml version="1.0" standalone="no"?><!DOCTYPE svg PUBLIC "-//W3C//DTD SVG 1.1//EN" "http://www.w3.org/Graphics/SVG/1.1/DTD/svg11.dtd"><svg t="1620059563390" class="icon" viewBox="0 0 1024 1024" version="1.1" xmlns="http://www.w3.org/2000/svg" p-id="1134" width="128" height="128" xmlns:xlink="http://www.w3.org/1999/xlink"><defs><style type="text/css"></style></defs><path d="M981.333333 512 810.666667 341.333333 810.666667 469.333333 426.666667 469.333333 426.666667 554.666667 810.666667 554.666667 810.666667 682.666667M42.666667 768 42.666667 256C42.666667 208.64 81.066667 170.666667 128 170.666667L640 170.666667C686.933333 170.666667 725.333333 209.066667 725.333333 256L725.333333 384 640 384 640 256 128 256 128 768 640 768 640 640 725.333333 640 725.333333 768C725.333333 814.933333 686.933333 853.333333 640 853.333333L128 853.333333C81.066667 853.333333 42.666667 814.933333 42.666667 768Z" p-id="1135"></path></svg>