<svg class="icon" viewBox="0 0 1024 1024" xmlns="http://www.w3.org/2000/svg" width="128" height="128"><defs><style/></defs><path d="M512.911 30.85C249.006 30.85 35.1 246.188 35.1 511.721c0 265.606 213.906 480.871 477.811 480.871 263.916 0 477.811-215.266 477.811-480.871.001-265.533-213.895-480.871-477.811-480.871zm11.46 761.712c-38.133 0-69.07-31.135-69.07-69.575 0-38.355 30.938-69.455 69.07-69.455 38.13 0 69.07 31.1 69.07 69.455.001 38.375-30.94 69.575-69.07 69.575zm92.046-297.386c-30.85 28.655-33.635 57.825-33.985 60.315-3.89 31.585-25.6 47.335-55.015 48.15-27.83.78-50.87-20.62-54.89-47.455-1.837-24.14-1.757-68.065 41.17-102.743 14.825-12.005 34.53-33.818 34.53-48.1.09-30.633-19.535-50.988-42.908-51.845-27.493-1.035-44.425 22.07-49.043 42.123v.553s-7.143 51.548-52.37 52.54c-28.82.64-52.195-23.54-52.24-52.54 0-97.71 86.315-157.598 159.805-157.598 69.385 0 155.605 56.535 157.535 145.813.896 41.82-7.089 68.58-52.589 110.787z"/></svg>